<svg xmlns="http://www.w3.org/2000/svg" xmlns:xlink="http://www.w3.org/1999/xlink" version="1.1" width="184.674pt" height="107.982pt" viewBox="0 0 184.674 107.982">
<path transform="matrix(1,0,0,-1,84.036,52.339)" stroke-width=".79701" stroke-linecap="butt" stroke-miterlimit="10" stroke-linejoin="miter" fill="none" stroke="#000000" d="M-41.943-13.54922H71.83134V43.43758H-41.943Z"/>
<path transform="matrix(1,0,0,-1,51.658,18.466)" d="M-9.4646-9.4646H9.4646V9.4646H-9.4646Z" fill="#ffffff"/>
<path transform="matrix(1,0,0,-1,51.658,18.466)" stroke-width=".19925" stroke-linecap="butt" stroke-miterlimit="10" stroke-linejoin="miter" fill="none" stroke="#000000" d="M-9.4646-9.4646H9.4646V9.4646H-9.4646Z"/>
<text xml:space="preserve" transform="matrix(1 0 -0 1 0 107.981998)" font-size="9.9626" font-family="CMR10"><tspan y="-86.306" x="49.167">1</tspan></text>
<path transform="matrix(1,0,0,-1,70.587009,18.466)" d="M-9.4646-9.4646H9.4646V9.4646H-9.4646Z" fill="#ffffff"/>
<path transform="matrix(1,0,0,-1,70.587009,18.466)" stroke-width=".19925" stroke-linecap="butt" stroke-miterlimit="10" stroke-linejoin="miter" fill="none" stroke="#000000" d="M-9.4646-9.4646H9.4646V9.4646H-9.4646Z"/>
<text xml:space="preserve" transform="matrix(1 0 -0 1 .0000076293949 107.981998)" font-size="9.9626" font-family="CMR10"><tspan y="-86.306" x="68.096">1</tspan></text>
<path transform="matrix(1,0,0,-1,89.51601,18.466)" d="M-9.4646-9.4646H9.4646V9.4646H-9.4646Z" fill="#ffffff"/>
<path transform="matrix(1,0,0,-1,89.51601,18.466)" stroke-width=".19925" stroke-linecap="butt" stroke-miterlimit="10" stroke-linejoin="miter" fill="none" stroke="#000000" d="M-9.4646-9.4646H9.4646V9.4646H-9.4646Z"/>
<text xml:space="preserve" transform="matrix(1 0 -0 1 .0000076293949 107.981998)" font-size="9.9626" font-family="CMR10"><tspan y="-86.306" x="87.025">0</tspan></text>
<path transform="matrix(1,0,0,-1,108.44501,18.466)" d="M-9.4646-9.4646H9.4646V9.4646H-9.4646Z" fill="#ffffff"/>
<path transform="matrix(1,0,0,-1,108.44501,18.466)" stroke-width=".19925" stroke-linecap="butt" stroke-miterlimit="10" stroke-linejoin="miter" fill="none" stroke="#000000" d="M-9.4646-9.4646H9.4646V9.4646H-9.4646Z"/>
<text xml:space="preserve" transform="matrix(1 0 -0 1 .0000076293949 107.981998)" font-size="9.9626" font-family="CMR10"><tspan y="-86.306" x="105.954">0</tspan></text>
<path transform="matrix(1,0,0,-1,127.37401,18.466)" d="M-9.4646-9.4646H9.4646V9.4646H-9.4646Z" fill="#ffffff"/>
<path transform="matrix(1,0,0,-1,127.37401,18.466)" stroke-width=".19925" stroke-linecap="butt" stroke-miterlimit="10" stroke-linejoin="miter" fill="none" stroke="#000000" d="M-9.4646-9.4646H9.4646V9.4646H-9.4646Z"/>
<text xml:space="preserve" transform="matrix(1 0 -0 1 .000015258789 107.982)" font-size="9.9626" font-family="CMSY10" font-style="italic"><tspan y="-87.302" x="121.562 125.99535 130.41875">&#x00b7;&#x00b7;&#x00b7;</tspan></text>
<path transform="matrix(1,0,0,-1,146.30301,18.466)" d="M-9.4646-9.4646H9.4646V9.4646H-9.4646Z" fill="#ffffff"/>
<path transform="matrix(1,0,0,-1,146.30301,18.466)" stroke-width=".19925" stroke-linecap="butt" stroke-miterlimit="10" stroke-linejoin="miter" fill="none" stroke="#000000" d="M-9.4646-9.4646H9.4646V9.4646H-9.4646Z"/>
<text xml:space="preserve" transform="matrix(1 0 -0 1 .000015258789 107.981998)" font-size="9.9626" font-family="CMR10"><tspan y="-86.306" x="143.812">1</tspan></text>
<path transform="matrix(1,0,0,-1,51.658014,37.395)" d="M-9.4646-9.4646H9.4646V9.4646H-9.4646Z" fill="#ffffff"/>
<path transform="matrix(1,0,0,-1,51.658014,37.395)" stroke-width=".19925" stroke-linecap="butt" stroke-miterlimit="10" stroke-linejoin="miter" fill="none" stroke="#000000" d="M-9.4646-9.4646H9.4646V9.4646H-9.4646Z"/>
<text xml:space="preserve" transform="matrix(1 0 -0 1 .000015258789 107.982)" font-size="9.9626" font-family="CMR10"><tspan y="-71.057" x="50.274">.</tspan><tspan y="-67.072" x="50.274">.</tspan><tspan y="-63.086999" x="50.274">.</tspan></text>
<path transform="matrix(1,0,0,-1,70.58701,37.395)" d="M-9.4646-9.4646H9.4646V9.4646H-9.4646Z" fill="#ffffff"/>
<path transform="matrix(1,0,0,-1,70.58701,37.395)" stroke-width=".19925" stroke-linecap="butt" stroke-miterlimit="10" stroke-linejoin="miter" fill="none" stroke="#000000" d="M-9.4646-9.4646H9.4646V9.4646H-9.4646Z"/>
<path transform="matrix(1,0,0,-1,89.516017,37.395)" d="M-9.4646-9.4646H9.4646V9.4646H-9.4646Z" fill="#ffffff"/>
<path transform="matrix(1,0,0,-1,89.516017,37.395)" stroke-width=".19925" stroke-linecap="butt" stroke-miterlimit="10" stroke-linejoin="miter" fill="none" stroke="#000000" d="M-9.4646-9.4646H9.4646V9.4646H-9.4646Z"/>
<path transform="matrix(1,0,0,-1,108.445018,37.395)" d="M-9.4646-9.4646H9.4646V9.4646H-9.4646Z" fill="#ffffff"/>
<path transform="matrix(1,0,0,-1,108.445018,37.395)" stroke-width=".19925" stroke-linecap="butt" stroke-miterlimit="10" stroke-linejoin="miter" fill="none" stroke="#000000" d="M-9.4646-9.4646H9.4646V9.4646H-9.4646Z"/>
<path transform="matrix(1,0,0,-1,127.374019,37.395)" d="M-9.4646-9.4646H9.4646V9.4646H-9.4646Z" fill="#ffffff"/>
<path transform="matrix(1,0,0,-1,127.374019,37.395)" stroke-width=".19925" stroke-linecap="butt" stroke-miterlimit="10" stroke-linejoin="miter" fill="none" stroke="#000000" d="M-9.4646-9.4646H9.4646V9.4646H-9.4646Z"/>
<text xml:space="preserve" transform="matrix(1 0 -0 1 .000022888184 107.982)" font-size="9.9626" font-family="CMR10"><tspan y="-70.061" x="122.116">.</tspan><tspan y="-67.072" x="125.99">.</tspan><tspan y="-64.084" x="129.864">.</tspan></text>
<path transform="matrix(1,0,0,-1,146.30301,37.395)" d="M-9.4646-9.4646H9.4646V9.4646H-9.4646Z" fill="#ffffff"/>
<path transform="matrix(1,0,0,-1,146.30301,37.395)" stroke-width=".19925" stroke-linecap="butt" stroke-miterlimit="10" stroke-linejoin="miter" fill="none" stroke="#000000" d="M-9.4646-9.4646H9.4646V9.4646H-9.4646Z"/>
<text xml:space="preserve" transform="matrix(1 0 -0 1 .000015258789 107.981998)" font-size="9.9626" font-family="CMR10"><tspan y="-67.377" x="143.812">1</tspan></text>
<path transform="matrix(1,0,0,-1,51.658014,56.324)" d="M-9.4646-9.4646H9.4646V9.4646H-9.4646Z" fill="#ffffff"/>
<path transform="matrix(1,0,0,-1,51.658014,56.324)" stroke-width=".19925" stroke-linecap="butt" stroke-miterlimit="10" stroke-linejoin="miter" fill="none" stroke="#000000" d="M-9.4646-9.4646H9.4646V9.4646H-9.4646Z"/>
<path transform="matrix(1,0,0,-1,70.58701,56.324)" d="M-9.4646-9.4646H9.4646V9.4646H-9.4646Z" fill="#ffffff"/>
<path transform="matrix(1,0,0,-1,70.58701,56.324)" stroke-width=".19925" stroke-linecap="butt" stroke-miterlimit="10" stroke-linejoin="miter" fill="none" stroke="#000000" d="M-9.4646-9.4646H9.4646V9.4646H-9.4646Z"/>
<path transform="matrix(1,0,0,-1,89.516017,56.324)" d="M-9.4646-9.4646H9.4646V9.4646H-9.4646Z" fill="#ffffff"/>
<path transform="matrix(1,0,0,-1,89.516017,56.324)" stroke-width=".19925" stroke-linecap="butt" stroke-miterlimit="10" stroke-linejoin="miter" fill="none" stroke="#000000" d="M-9.4646-9.4646H9.4646V9.4646H-9.4646Z"/>
<path transform="matrix(1,0,0,-1,108.445018,56.324)" d="M-9.4646-9.4646H9.4646V9.4646H-9.4646Z" fill="#ffffff"/>
<path transform="matrix(1,0,0,-1,108.445018,56.324)" stroke-width=".19925" stroke-linecap="butt" stroke-miterlimit="10" stroke-linejoin="miter" fill="none" stroke="#000000" d="M-9.4646-9.4646H9.4646V9.4646H-9.4646Z"/>
<path transform="matrix(1,0,0,-1,127.374019,56.324)" d="M-9.4646-9.4646H9.4646V9.4646H-9.4646Z" fill="#ffffff"/>
<path transform="matrix(1,0,0,-1,127.374019,56.324)" stroke-width=".19925" stroke-linecap="butt" stroke-miterlimit="10" stroke-linejoin="miter" fill="none" stroke="#000000" d="M-9.4646-9.4646H9.4646V9.4646H-9.4646Z"/>
<path transform="matrix(1,0,0,-1,146.30301,56.324)" d="M-9.4646-9.4646H9.4646V9.4646H-9.4646Z" fill="#ffffff"/>
<path transform="matrix(1,0,0,-1,146.30301,56.324)" stroke-width=".19925" stroke-linecap="butt" stroke-miterlimit="10" stroke-linejoin="miter" fill="none" stroke="#000000" d="M-9.4646-9.4646H9.4646V9.4646H-9.4646Z"/>
<text xml:space="preserve" transform="matrix(1 0 -0 1 .000015258789 107.982)" font-size="9.9626" font-family="CMR10"><tspan y="-48.448" x="143.812">0</tspan></text>
<path transform="matrix(1,0,0,-1,84.036,52.339)" stroke-width=".79701" stroke-linecap="butt" stroke-miterlimit="10" stroke-linejoin="miter" fill="none" stroke="#000000" d="M-56.88716-28.4934H56.887178V28.4934H-56.88716Z"/>
<path transform="matrix(1,0,0,-1,36.714,33.410005)" d="M-9.4646-9.4646H9.4646V9.4646H-9.4646Z" fill="#ffffff"/>
<path transform="matrix(1,0,0,-1,36.714,33.410005)" stroke-width=".19925" stroke-linecap="butt" stroke-miterlimit="10" stroke-linejoin="miter" fill="none" stroke="#000000" d="M-9.4646-9.4646H9.4646V9.4646H-9.4646Z"/>
<text xml:space="preserve" transform="matrix(1 0 -0 1 0 107.982)" font-size="9.9626" font-family="CMR10"><tspan y="-71.362" x="34.223">0</tspan></text>
<path transform="matrix(1,0,0,-1,55.643,33.410005)" d="M-9.4646-9.4646H9.4646V9.4646H-9.4646Z" fill="#ffffff"/>
<path transform="matrix(1,0,0,-1,55.643,33.410005)" stroke-width=".19925" stroke-linecap="butt" stroke-miterlimit="10" stroke-linejoin="miter" fill="none" stroke="#000000" d="M-9.4646-9.4646H9.4646V9.4646H-9.4646Z"/>
<text xml:space="preserve" transform="matrix(1 0 -0 1 0 107.982)" font-size="9.9626" font-family="CMR10"><tspan y="-71.362" x="53.152">0</tspan></text>
<path transform="matrix(1,0,0,-1,74.57201,33.410005)" d="M-9.4646-9.4646H9.4646V9.4646H-9.4646Z" fill="#ffffff"/>
<path transform="matrix(1,0,0,-1,74.57201,33.410005)" stroke-width=".19925" stroke-linecap="butt" stroke-miterlimit="10" stroke-linejoin="miter" fill="none" stroke="#000000" d="M-9.4646-9.4646H9.4646V9.4646H-9.4646Z"/>
<text xml:space="preserve" transform="matrix(1 0 -0 1 .0000076293949 107.982)" font-size="9.9626" font-family="CMR10"><tspan y="-71.362" x="72.081">1</tspan></text>
<path transform="matrix(1,0,0,-1,93.50101,33.410005)" d="M-9.4646-9.4646H9.4646V9.4646H-9.4646Z" fill="#ffffff"/>
<path transform="matrix(1,0,0,-1,93.50101,33.410005)" stroke-width=".19925" stroke-linecap="butt" stroke-miterlimit="10" stroke-linejoin="miter" fill="none" stroke="#000000" d="M-9.4646-9.4646H9.4646V9.4646H-9.4646Z"/>
<text xml:space="preserve" transform="matrix(1 0 -0 1 .0000076293949 107.982)" font-size="9.9626" font-family="CMR10"><tspan y="-71.362" x="91.01">0</tspan></text>
<path transform="matrix(1,0,0,-1,112.43001,33.410005)" d="M-9.4646-9.4646H9.4646V9.4646H-9.4646Z" fill="#ffffff"/>
<path transform="matrix(1,0,0,-1,112.43001,33.410005)" stroke-width=".19925" stroke-linecap="butt" stroke-miterlimit="10" stroke-linejoin="miter" fill="none" stroke="#000000" d="M-9.4646-9.4646H9.4646V9.4646H-9.4646Z"/>
<text xml:space="preserve" transform="matrix(1 0 -0 1 .000015258789 107.98201)" font-size="9.9626" font-family="CMSY10" font-style="italic"><tspan y="-72.358" x="106.618 111.05135 115.47475">&#x00b7;&#x00b7;&#x00b7;</tspan></text>
<path transform="matrix(1,0,0,-1,131.35901,33.410005)" d="M-9.4646-9.4646H9.4646V9.4646H-9.4646Z" fill="#ffffff"/>
<path transform="matrix(1,0,0,-1,131.35901,33.410005)" stroke-width=".19925" stroke-linecap="butt" stroke-miterlimit="10" stroke-linejoin="miter" fill="none" stroke="#000000" d="M-9.4646-9.4646H9.4646V9.4646H-9.4646Z"/>
<text xml:space="preserve" transform="matrix(1 0 -0 1 .000015258789 107.982)" font-size="9.9626" font-family="CMR10"><tspan y="-71.362" x="128.868">0</tspan></text>
<path transform="matrix(1,0,0,-1,36.714014,52.339006)" d="M-9.4646-9.4646H9.4646V9.4646H-9.4646Z" fill="#ffffff"/>
<path transform="matrix(1,0,0,-1,36.714014,52.339006)" stroke-width=".19925" stroke-linecap="butt" stroke-miterlimit="10" stroke-linejoin="miter" fill="none" stroke="#000000" d="M-9.4646-9.4646H9.4646V9.4646H-9.4646Z"/>
<text xml:space="preserve" transform="matrix(1 0 -0 1 .000011444092 107.98201)" font-size="9.9626" font-family="CMR10"><tspan y="-56.114" x="35.33">.</tspan><tspan y="-52.128" x="35.33">.</tspan><tspan y="-48.142999" x="35.33">.</tspan></text>
<path transform="matrix(1,0,0,-1,55.643014,52.339006)" d="M-9.4646-9.4646H9.4646V9.4646H-9.4646Z" fill="#ffffff"/>
<path transform="matrix(1,0,0,-1,55.643014,52.339006)" stroke-width=".19925" stroke-linecap="butt" stroke-miterlimit="10" stroke-linejoin="miter" fill="none" stroke="#000000" d="M-9.4646-9.4646H9.4646V9.4646H-9.4646Z"/>
<path transform="matrix(1,0,0,-1,74.572017,52.339006)" d="M-9.4646-9.4646H9.4646V9.4646H-9.4646Z" fill="#ffffff"/>
<path transform="matrix(1,0,0,-1,74.572017,52.339006)" stroke-width=".19925" stroke-linecap="butt" stroke-miterlimit="10" stroke-linejoin="miter" fill="none" stroke="#000000" d="M-9.4646-9.4646H9.4646V9.4646H-9.4646Z"/>
<path transform="matrix(1,0,0,-1,93.501018,52.339006)" d="M-9.4646-9.4646H9.4646V9.4646H-9.4646Z" fill="#ffffff"/>
<path transform="matrix(1,0,0,-1,93.501018,52.339006)" stroke-width=".19925" stroke-linecap="butt" stroke-miterlimit="10" stroke-linejoin="miter" fill="none" stroke="#000000" d="M-9.4646-9.4646H9.4646V9.4646H-9.4646Z"/>
<path transform="matrix(1,0,0,-1,112.430019,52.339006)" d="M-9.4646-9.4646H9.4646V9.4646H-9.4646Z" fill="#ffffff"/>
<path transform="matrix(1,0,0,-1,112.430019,52.339006)" stroke-width=".19925" stroke-linecap="butt" stroke-miterlimit="10" stroke-linejoin="miter" fill="none" stroke="#000000" d="M-9.4646-9.4646H9.4646V9.4646H-9.4646Z"/>
<text xml:space="preserve" transform="matrix(1 0 -0 1 .000022888184 107.98201)" font-size="9.9626" font-family="CMR10"><tspan y="-55.117" x="107.172">.</tspan><tspan y="-52.128004" x="111.046">.</tspan><tspan y="-49.140005" x="114.92">.</tspan></text>
<path transform="matrix(1,0,0,-1,131.35901,52.339006)" d="M-9.4646-9.4646H9.4646V9.4646H-9.4646Z" fill="#ffffff"/>
<path transform="matrix(1,0,0,-1,131.35901,52.339006)" stroke-width=".19925" stroke-linecap="butt" stroke-miterlimit="10" stroke-linejoin="miter" fill="none" stroke="#000000" d="M-9.4646-9.4646H9.4646V9.4646H-9.4646Z"/>
<text xml:space="preserve" transform="matrix(1 0 -0 1 .000015258789 107.982)" font-size="9.9626" font-family="CMR10"><tspan y="-52.433" x="128.868">1</tspan></text>
<path transform="matrix(1,0,0,-1,36.714014,71.268009)" d="M-9.4646-9.4646H9.4646V9.4646H-9.4646Z" fill="#ffffff"/>
<path transform="matrix(1,0,0,-1,36.714014,71.268009)" stroke-width=".19925" stroke-linecap="butt" stroke-miterlimit="10" stroke-linejoin="miter" fill="none" stroke="#000000" d="M-9.4646-9.4646H9.4646V9.4646H-9.4646Z"/>
<text xml:space="preserve" transform="matrix(1 0 -0 1 .000011444092 107.98201)" font-size="9.9626" font-family="CMR10"><tspan y="-33.504" x="34.223">0</tspan></text>
<path transform="matrix(1,0,0,-1,55.643014,71.268009)" d="M-9.4646-9.4646H9.4646V9.4646H-9.4646Z" fill="#ffffff"/>
<path transform="matrix(1,0,0,-1,55.643014,71.268009)" stroke-width=".19925" stroke-linecap="butt" stroke-miterlimit="10" stroke-linejoin="miter" fill="none" stroke="#000000" d="M-9.4646-9.4646H9.4646V9.4646H-9.4646Z"/>
<text xml:space="preserve" transform="matrix(1 0 -0 1 .000011444092 107.98201)" font-size="9.9626" font-family="CMR10"><tspan y="-33.504" x="53.152">1</tspan></text>
<path transform="matrix(1,0,0,-1,74.572017,71.268009)" d="M-9.4646-9.4646H9.4646V9.4646H-9.4646Z" fill="#ffffff"/>
<path transform="matrix(1,0,0,-1,74.572017,71.268009)" stroke-width=".19925" stroke-linecap="butt" stroke-miterlimit="10" stroke-linejoin="miter" fill="none" stroke="#000000" d="M-9.4646-9.4646H9.4646V9.4646H-9.4646Z"/>
<text xml:space="preserve" transform="matrix(1 0 -0 1 .000015258789 107.98201)" font-size="9.9626" font-family="CMR10"><tspan y="-33.504" x="72.081">1</tspan></text>
<path transform="matrix(1,0,0,-1,93.501018,71.268009)" d="M-9.4646-9.4646H9.4646V9.4646H-9.4646Z" fill="#ffffff"/>
<path transform="matrix(1,0,0,-1,93.501018,71.268009)" stroke-width=".19925" stroke-linecap="butt" stroke-miterlimit="10" stroke-linejoin="miter" fill="none" stroke="#000000" d="M-9.4646-9.4646H9.4646V9.4646H-9.4646Z"/>
<text xml:space="preserve" transform="matrix(1 0 -0 1 .000015258789 107.98201)" font-size="9.9626" font-family="CMR10"><tspan y="-33.504" x="91.01">0</tspan></text>
<path transform="matrix(1,0,0,-1,112.430019,71.268009)" d="M-9.4646-9.4646H9.4646V9.4646H-9.4646Z" fill="#ffffff"/>
<path transform="matrix(1,0,0,-1,112.430019,71.268009)" stroke-width=".19925" stroke-linecap="butt" stroke-miterlimit="10" stroke-linejoin="miter" fill="none" stroke="#000000" d="M-9.4646-9.4646H9.4646V9.4646H-9.4646Z"/>
<text xml:space="preserve" transform="matrix(1 0 -0 1 .000015258789 107.98201)" font-size="9.9626" font-family="CMR10"><tspan y="-33.504" x="109.939">1</tspan></text>
<path transform="matrix(1,0,0,-1,131.35901,71.268009)" d="M-9.4646-9.4646H9.4646V9.4646H-9.4646Z" fill="#ffffff"/>
<path transform="matrix(1,0,0,-1,131.35901,71.268009)" stroke-width=".19925" stroke-linecap="butt" stroke-miterlimit="10" stroke-linejoin="miter" fill="none" stroke="#000000" d="M-9.4646-9.4646H9.4646V9.4646H-9.4646Z"/>
<text xml:space="preserve" transform="matrix(1 0 -0 1 .000015258789 107.98201)" font-size="9.9626" font-family="CMR10"><tspan y="-33.504" x="128.868">0</tspan></text>
<path transform="matrix(1,0,0,-1,84.036,52.339)" stroke-width=".79701" stroke-linecap="butt" stroke-miterlimit="10" stroke-linejoin="miter" fill="none" stroke="#000000" d="M61.57518-28.8919 74.68776-15.77933"/>
<path transform="matrix(.7071,-.7071,-.7071,-.7071,158.72376,68.11833)" d="M2.59026 0-1.55415 2.0722 0 0-1.55415-2.0722"/>
<text xml:space="preserve" transform="matrix(.7071 -.7071 .7071 .7071 56.42221 209.78987)" font-size="9.9626" font-family="CMMI10" font-style="italic"><tspan y="-17.202" x="151.105 156.11618 159.28429 164.11615 167.55326 172.74378">ploidy</tspan></text>
<path transform="matrix(1,0,0,-1,84.036,52.339)" stroke-width=".79701" stroke-linecap="butt" stroke-miterlimit="10" stroke-linejoin="miter" fill="none" stroke="#000000" d="M-57.28568-33.18141H54.6954"/>
<path transform="matrix(1,0,0,-1,138.7314,85.52042)" d="M2.59026 0-1.55415 2.0722 0 0-1.55415-2.0722"/>
<text xml:space="preserve" transform="matrix(1 0 -0 1 .0000076293949 107.981998)" font-size="9.9626" font-family="CMR10"><tspan y="-11.825" x="66.823 75.12184 80.10314 84.008487 88.989788 93.41318 97.31852">markers</tspan></text>
<path transform="matrix(1,0,0,-1,84.036,52.339)" stroke-width=".79701" stroke-linecap="butt" stroke-miterlimit="10" stroke-linejoin="miter" fill="none" stroke="#000000" d="M-61.57518 28.8919V-26.30164"/>
<path transform="matrix(0,1,1,0,22.460824,78.64064)" d="M2.59026 0-1.55415 2.0722 0 0-1.55415-2.0722"/>
<text xml:space="preserve" transform="matrix(0 -1 1 0 50.697008 94.770999)" font-size="9.9626" font-family="CMR10"><tspan y="-31.954" x="18.743 21.512604 27.05181 32.591016 35.36062 40.620874 43.390478 48.929685 54.46889 59.45019 62.219797">individuals</tspan></text>
</svg>
